<?xml version="1.0" standalone="yes"?>
<svg xmlns="http://www.w3.org/2000/svg" width="500" height="500">
<path style="fill:#010101; stroke:none;" d="M0 0L0 500L500 500L500 0L0 0z"/>
<path style="fill:#d74781; stroke:none;" d="M62 254C62.1182 249.115 62.7397 245.859 68 245L69 235L66 236L65 231L69 224L69 212C74.7142 201.855 77.5981 190.212 83.2353 180C101.049 147.731 125.727 119.603 158 101.15C231.38 59.1945 326.777 68.6169 386.961 130.015C426.43 170.281 447.265 227.923 439.271 284C437.43 296.912 435.058 322.394 424.725 331.562C418.665 336.94 411.21 331.537 404.961 331.572C393.771 331.634 382.38 337.489 372 341L364 338L363 346L362 346C362.728 339.667 361.462 338.077 355 338L357 349C339.412 355.402 322.352 369.444 307 380.025C300.77 384.32 293.605 391.373 286 392.856C278.505 394.317 272.003 389.664 265 388C270.729 403.173 290.928 401.604 303 397.308C335.046 385.905 361.156 359.983 394 351L394 350L392 350L392 349C397.822 348.123 401.311 346.131 402 340L403 340C405.311 351.287 414.759 339.702 421 346C436.951 339.764 456.638 343.963 467.471 358C471.71 363.494 472.966 369.962 476 376L477 376C477 350.504 459.613 331.22 433 331C436.063 318.105 442.273 306.206 444.739 293C452.263 252.707 447.015 211.402 430.334 174C380.418 62.0782 231.933 29.0403 134 96.885C97.8662 121.917 64.5097 161.423 54.3248 205C51.4452 217.321 41.8945 253.929 62 254z"/>
<path style="fill:#e8dc2a; stroke:none;" d="M69 212L69 224L65 231L66 236L69 235L68 245C62.2479 245.459 62.0466 248.859 62 254L85 253L84 247L86 247L86 235L92 224L90 219C92.5233 218.113 93.6081 216.963 94 220L95 220C95.6868 213.838 98.976 210.957 105 210L105 209C88.002 206.308 104.546 186.22 108.941 178C123.329 151.094 147.698 128.473 174 113.427C260.349 64.0341 371.262 100.814 415.247 189C426.213 210.986 437.903 245.205 432 270L438 270C428.272 281.635 428.598 311.841 411 312L411 313C419.313 313 425.536 313.694 427 304L428 304L418 334C432.389 333.212 435.324 306.381 437.6 295C446.081 252.592 438.336 209.102 418.219 171C367.824 75.5501 239.966 48.0216 151 104.695C109.721 130.991 87.9281 168.475 69 212z"/>
<path style="fill:#29d6d8; stroke:none;" d="M105 209L105 210C98.4644 210.593 95.3634 213.367 95 220L94 220L94 217L90 219L92 221L92 224L86 235L85 253L107 253L111 246L111 249C113.02 246.314 112.893 244.747 111 242L114 241L111 238L109 240L109 234L112 233L109 232L113 229L111 226L113 215L114 211L116 211C116.35 206.176 119.472 202.346 121.309 197.961C128.822 180.021 140.258 164.647 153.999 151.004C207.812 97.5741 291.858 92.3127 354 134.001C370.945 145.368 394.571 164.826 401 185L406 185L406 186L403 186C412.565 208.198 421.12 227.733 424.424 252C424.84 255.06 423.634 274.951 431.397 268.968C436.554 264.993 431.911 245.603 431.13 240C426.735 208.457 413.551 178.637 393.386 154C340.96 89.9479 249.643 73.7599 177 111.258C149.623 125.391 124.34 148.91 109.478 176C105.047 184.076 86.9897 207.364 105 209z"/>
<path style="fill:#5127ed; stroke:none;" d="M116 211L114 211L113 215L111 226L113 229C109.277 229.425 108.811 231.067 112 233L109 234L111 238L114 241L111 242C112.749 245.33 112.555 247.238 110 250C110.798 247.323 110.881 246.46 108 246L110 249L107 253L118 255C120.159 251.376 123.063 248.103 121 244L124 244C124.958 234.645 129.86 224.895 132.921 216C156.021 148.875 226.401 108.486 296 121.805C312.855 125.03 330.585 131.932 345 141.297C353.666 146.927 361.789 155.705 371 160L372 153L373 153C373.646 160.345 376.556 163.654 384 164L384 165L377 167L390 182L392 172L393 172C394.114 177.721 395.073 181.935 401 184C394.676 164.156 371.666 145.181 355 134.001C295.542 94.1135 215.29 96.6356 160.576 144.004C145.165 157.345 132.224 173.57 123.428 192C120.745 197.622 116.068 204.77 116 211z"/>
<path style="fill:#d74781; stroke:none;" d="M274 119L275 120L274 119M247.667 120.333L248.333 120.667L247.667 120.333z"/>
<path style="fill:#e8dc2a; stroke:none;" d="M249 120C248.623 126.877 245.29 129.157 239 131L239 132C245.61 132.362 248.638 135.39 249 142L250 142C251.729 135.611 254.068 132.38 261 132L261 131C253.728 129.033 252.667 125.955 249 120z"/>
<path style="fill:#d74781; stroke:none;" d="M344 140L345 141L344 140M372.333 153.667L372.667 154.333L372.333 153.667z"/>
<path style="fill:#e8dc2a; stroke:none;" d="M372 155C370.481 161.333 366.188 163.456 360 164L360 165C367.348 166.542 370.945 169.364 372 177L373 177C373.878 170.646 376.419 166.329 383 165L383 164C376.81 163.31 374.9 160.015 372 155z"/>
<path style="fill:#d74781; stroke:none;" d="M371.333 157.667L371.667 158.333L371.333 157.667M373.333 157.667L373.667 158.333L373.333 157.667M374 160L375 161L374 160M378 163L379 164L378 163M383 164L384 165L383 164M379.667 165.333L380.333 165.667L379.667 165.333M377 166L378 167L377 166M392 172L393 177L394 177L392 172M240 202C249.782 211.04 239.974 230.58 259 232.115C261.368 232.306 263.688 232.382 266 231.736C269.292 230.817 272.107 228.74 275 227C278.828 237.238 309.806 234.189 319 232C314.877 221.673 308.403 203.391 324 199C322.201 209.181 333.268 211.868 337.971 202.956C341.485 196.299 334.558 189.835 328 190.308C322.187 190.727 318.606 196.096 315 200L317 190L294 199C297.511 212.026 300.595 217.539 295 231L294 231C288.298 217.098 288.233 204.684 291 190L268 199C270.029 206.471 275.012 211.562 272.347 219.999C271.408 222.972 268.739 227.221 265.105 225.248C255.17 219.855 260.908 198.453 262 190L239 200C235.854 164.193 178.035 168.226 178.079 204C178.127 243.237 238.37 239.875 240 202z"/>
<path style="fill:#e8dc2a; stroke:none;" d="M392 175C390.467 182.528 383.952 184.431 377 185L377 186C387.049 186.438 391.784 190.85 392 201L393 201C395.083 192.548 395.96 186.467 406 186L406 185C398.191 184.313 396.34 180.698 392 175M222 177L222 178C230.57 183.27 237.441 189.6 239 200L243 199C239.515 188.38 233.082 180.2 222 177z"/>
<path style="fill:#d74781; stroke:none;" d="M391 178L392 179L391 178z"/>
<path style="fill:#e8dc2a; stroke:none;" d="M209 228C201.119 215.921 193.774 187.591 213 181C206.386 176.702 201.074 184.168 199.22 190C195.653 201.219 194.707 223.977 209 228z"/>
<path style="fill:#d74781; stroke:none;" d="M394 179L395 180L394 179M390 180L391 181L390 180z"/>
<path style="fill:#010101; stroke:none;" d="M210.039 181.89C198.561 184.643 200.011 208.896 202.44 217C203.523 220.616 206.096 227.611 210.988 226.94C223.407 225.235 221.392 198.835 218.96 191C217.796 187.251 215.122 180.672 210.039 181.89z"/>
<path style="fill:#d74781; stroke:none;" d="M395 181L396 182L395 181M396 182L397 183L396 182M398 183L399 184L398 183M400 186L401 187L400 186z"/>
<path style="fill:#5127ed; stroke:none;" d="M423 297L426 270C424.006 261.626 424.842 252.574 423.573 244C420.578 223.771 413.686 203.46 403 186C398.855 187.086 394.728 189.011 396.767 194.001C401.333 205.172 407.481 215.345 411.255 227C415.656 240.596 416.533 254.072 418.789 268C420.167 276.506 414.891 290.855 423 297z"/>
<path style="fill:#d74781; stroke:none;" d="M397 187L398 188L397 187M396 188L397 189L396 188z"/>
<path style="fill:#e8dc2a; stroke:none;" d="M268 227C261.079 214.874 264.73 204.057 265 191C255.761 196.078 257.477 223.973 268 227M294 231L295 231L292.209 211L294 191C282.919 194.675 289.858 223.714 294 231M315 200L320 191C315.702 192.413 315.345 195.813 315 200M335.667 192.333L336.333 192.667L335.667 192.333M337 193C339.886 200.934 336.883 207.011 328 208L328 209C338.507 211.278 349.969 197.849 337 193z"/>
<path style="fill:#010101; stroke:none;" d="M319 194L320 195L319 194z"/>
<path style="fill:#e8dc2a; stroke:none;" d="M319 232L282 233L282 234L323 233C317.063 218.58 317.827 212.874 324 199C308.708 201.366 313.776 222.848 319 232z"/>
<path style="fill:#010101; stroke:none;" d="M323 201L324 202L323 201z"/>
<path style="fill:#e8dc2a; stroke:none;" d="M240 202C238.274 223.694 221.737 232.244 202 232L202 233C220.144 235.293 249.21 226.402 242 202L240 202z"/>
<path style="fill:#29d6d8; stroke:none;" d="M92.3333 214.667L92.6667 215.333L92.3333 214.667z"/>
<path style="fill:#e8dc2a; stroke:none;" d="M66 225L67 226L66 225M90 225L91 226L90 225M257 232L257 233C263.17 234.145 274.602 235.85 275 227L257 232z"/>
<path style="fill:#29d6d8; stroke:none;" d="M88.3333 228.667L88.6667 229.333L88.3333 228.667z"/>
<path style="fill:#010101; stroke:none;" d="M51 232L51 244L53 246L54 246L51 232z"/>
<path style="fill:#e8dc2a; stroke:none;" d="M64 234L65 235L64 234z"/>
<path style="fill:#010101; stroke:none;" d="M57 245L58 246L57 245M120 245L116 250L117 251L118 251L119 250L120 245M59 246L60 247L59 246M65 246L66 247L65 246M70 246L71 247L70 246M75 246L75 248L77 246L75 246M73 247L74 248L73 247M78 247L79 248L78 247M84.6667 247.333L85.3333 247.667L84.6667 247.333M89.6667 247.333L90.3333 247.667L89.6667 247.333z"/>
<path style="fill:#d74781; stroke:none;" d="M416 247L417 248L416 247z"/>
<path style="fill:#010101; stroke:none;" d="M93 248L94 249L93 248M97 248L98 249L97 248M101 248L101 249L104 249L101 248z"/>
<path style="fill:#5127ed; stroke:none;" d="M105 248L106 249L105 248z"/>
<path style="fill:#010101; stroke:none;" d="M108.667 248.333L109.333 248.667L108.667 248.333M105 249L106 250L105 249M107 249L108 250L107 249M110.667 249.333L111.333 249.667L110.667 249.333M114 250L115 251L114 250z"/>
<path style="fill:#d74781; stroke:none;" d="M80 312L106 311L101 288C113.735 288.98 111.94 303.39 110 312L135 311L115 287C128.171 281.479 133.566 266.054 119.996 256.92C113.268 252.39 104.738 253 97 253C93.7809 253 83.013 251.297 81.1752 254.603C79.7732 257.125 84.9497 266.239 84.9961 270C85.1158 279.689 86.7591 291.542 84.6057 301C83.7091 304.938 81.0069 308.085 80 312M192.985 253.672C183.784 254.428 178.555 271.377 190.004 270.423C199.835 269.604 204.606 252.718 192.985 253.672M263 262C264.025 265.64 266.948 268.275 267.721 272.004C269.266 279.454 268.039 288.401 267.999 296C267.981 299.459 263.799 307.978 265.172 310.397C267.158 313.894 279.502 312.001 283 312C292.488 311.996 303.948 311.124 310.2 302.907C323.586 285.311 302.512 264.253 284 271L287 254L263 262z"/>
<path style="fill:#e8dc2a; stroke:none;" d="M287 254L284 271C289.804 268.669 288.987 260.436 290 255L289 254L287 254M117.667 255.333L118.333 255.667L117.667 255.333M198 255C201.342 262.349 198.164 268.352 190 270L190 272C199.223 271.802 211.686 258.97 198 255M119 256L119 257C133.13 267.043 127.867 279.375 115 287L135 311L113 312L113 313L139 313C137.059 306.228 125.276 292.382 119 289L119 288C134.621 283.012 136.899 259.611 119 256M104 258L101 284C107.254 281.924 105.798 265.196 107 259L104 258z"/>
<path style="fill:#010101; stroke:none;" d="M106 261L105 282C111.924 276.843 115.138 265.78 106 261z"/>
<path style="fill:#d74781; stroke:none;" d="M156 273L160 290C157.865 288.026 155.918 286.035 152.998 285.316C131.553 280.041 128.798 314.435 151 310.981C154.705 310.404 157.722 308.715 161 307C164.85 313.595 174.385 312.955 181 311C179.514 307.64 176.892 304.682 176.228 301C174.708 292.561 177.39 284.489 171.442 277.093C164.896 268.954 143.434 263.822 138.762 277.012C136.199 284.245 146.475 285.292 150.678 282.062C154.022 279.492 152.018 275.313 156 273M181 278C187.089 291.772 187.315 296.853 182 311C189.338 313.169 199.575 312.768 207 311C201.527 297.706 199.889 284.023 205 270L181 278M207 278L207 281C216.419 288.888 211.013 301.458 208 311C214.853 313.026 225.147 313.026 232 311C229.469 302.145 226.715 294.501 228.214 285C228.695 281.947 230.969 276.207 234.802 276.207C237.95 276.207 239.505 281.666 240.226 284C243.442 294.412 240.507 301.345 237 311C244.281 313.152 255.719 313.152 263 311L263 309C253.403 300.071 261.032 262.943 236.09 269.583C233.384 270.304 231.184 272.353 229 274L230 269L207 278M334 269.465C304.676 274.613 312.642 315.849 342 310.89C370.324 306.105 361.003 264.725 334 269.465M361 269C361.823 274.002 365.901 277.404 367.96 282C371.604 290.137 376.582 323.439 392.49 310.142C397.154 306.243 397.67 296.414 400 291C402.416 296.718 402.104 304.586 406.086 309.566C409.362 313.665 418.996 312.881 421.914 308.772C426.94 301.695 427.992 290.165 430.749 282C432.331 277.317 435.654 274.176 438 270L423 270C424.839 278.044 426.437 289.933 421 297L422 302C413.365 293.073 414.756 279.783 417 269L389 269L395.448 281L393 303L392 303C389.012 290.085 386.685 282.211 388 269L361 269z"/>
<path style="fill:#010101; stroke:none;" d="M199 270L200 271L199 270z"/>
<path style="fill:#e8dc2a; stroke:none;" d="M205 270C199.328 281.785 200.477 300.014 207 311L182 311C182.16 297.852 180.928 276.434 166 272L166 273C179.322 283.373 172.731 298.272 181 311L168 312L168 313L236 313C232.885 296.659 229.941 290.965 237 275C221.973 277.34 228.208 301.754 232 311L208 311L208 271L205 270M229 274L233 270L229 274M388 270C384.783 282.158 388.213 291.361 392 303L393 303L390.091 283L388 270M417 270C413.281 278.37 413.478 296.167 422 302L418.174 283L419 270L417 270M164.667 271.333L165.333 271.667L164.667 271.333M246.667 271.333L247.333 271.667L246.667 271.333M301.667 271.333L302.333 271.667L301.667 271.333M347.667 271.333L348.333 271.667L347.667 271.333M248 272L248 273C253.813 277.642 257.026 283.554 257.826 291C258.547 297.706 256.43 304.838 263 309L263 311L241 312L241 313L283 313C290.595 313 298.947 314.004 305.999 310.597C319.881 303.891 320.203 278.169 305 273C309.946 280.107 315.712 285.565 313.468 295C309.731 310.711 292.167 312 279 312C275.311 312 269.557 313.045 266.299 310.972C252.614 302.264 268.672 278.157 248 272M303.667 272.333L304.333 272.667L303.667 272.333M349 272L349 273C370.224 289.217 354.977 311.535 332 311L332 312C340.892 313.651 350.814 313.528 357.671 306.671C368.862 295.481 364.046 276.469 349 272M144 284L144 285C154.523 284.999 156.83 283.529 156 273L144 284M293 308C286.98 295.118 289.404 285.652 294 273C281.487 274.979 281.496 304.586 293 308M339 308C334.028 295.814 333.832 285.785 340 274C327.305 272.163 327.869 304.704 339 308z"/>
<path style="fill:#010101; stroke:none;" d="M391 274C388.649 281.953 391.22 289.236 393 297L394 297C394.669 288.533 398.554 280.325 391 274M156 275L154 285L160 287L156 275M293 275C287.567 284.652 287.662 296.917 292 307L294 307C298.573 298.277 301.032 282.421 293 275M339 275C333.373 284.996 334.097 296.529 338 307L340 307C343.656 297.506 346.989 283.267 339 275M418 276L418 282L419 282L418 276M206 279L208 308C215.53 301.355 213.35 284.938 206 279z"/>
<path style="fill:#e8dc2a; stroke:none;" d="M156 286L160 290L156 286M101 288C101.005 296.146 101.589 303.978 106 311L83 312L83 313L109 313C107.796 303.745 102.962 297.529 107 288L101 288z"/>
<path style="fill:#d74781; stroke:none;" d="M419 290L420 291L419 290z"/>
<path style="fill:#e8dc2a; stroke:none;" d="M155 305C152.527 299.446 153.146 296.628 157 292C147.402 289.879 145.895 304.573 155 305M399 291C396.869 301.299 395.185 311.739 383 312L383 313C386.632 313 392.419 314.073 395.581 311.972C400.364 308.794 403.864 294.72 399 291z"/>
<path style="fill:#010101; stroke:none;" d="M155 305L156 305C158.732 300.86 159.129 297.802 158 293C151.689 294.899 152.012 300.054 155 305z"/>
<path style="fill:#d74781; stroke:none;" d="M420 294L421 295L420 294z"/>
<path style="fill:#29d6d8; stroke:none;" d="M429 298L430 299L429 298M428 301L428 304L429 304L428 301M427 304L414 333C422.334 331.683 429.714 311.588 427 304z"/>
<path style="fill:#e8dc2a; stroke:none;" d="M147 311L147 312C152.512 313.629 157.031 312.783 162 310L162 308L161 307L147 311z"/>
<path style="fill:#5127ed; stroke:none;" d="M415 334L420 313C410.948 313.297 402.914 334.982 415 334z"/>
<path style="fill:#d74781; stroke:none;" d="M412 317L413 318L412 317z"/>
<path style="fill:#e8dc2a; stroke:none;" d="M38 321C35.5188 331.045 32.6431 334.624 22 336L22 337C32.9638 337.478 35.5739 342.156 38 352L39 352C39.2136 341.972 44.0302 337.436 54 337L54 336C42.746 334.545 42.1015 330.133 38 321z"/>
<path style="fill:#d74781; stroke:none;" d="M124 338C124.006 345.657 125.027 347.972 133 348C132.975 340.836 131.48 338.088 124 338M135 338L135 348L142 348L142 338L135 338M147 338L151 348C155.208 346.774 156.382 342.034 157 338L152 341L147 338M160.242 339.043C154.879 342.24 160.406 350.666 165.566 347.638C170.832 344.549 165.741 335.765 160.242 339.043M169 338C169.109 350.056 177.991 350.29 178 338L175 338L174 345L169 338M180 338L181 348L183 346L184 346L185 346L189 348C188.169 341.124 187.689 338.186 180 338M191.61 339.029C188.25 341.638 190.438 351.152 195.673 347.928C199.937 345.302 196.762 335.028 191.61 339.029M199 338C199.005 344.92 199.477 347.911 207 348C206.438 341.21 206.913 338.094 199 338M209 338L209 348L216 348L216 345L212 345L211 338L209 338M217 338C217.003 341.987 216.402 345.668 220 348L224 345C224.926 339.028 222.641 338.067 217 338M241 338C241.006 345.657 242.027 347.972 250 348C249.975 340.836 248.48 338.088 241 338M252 338L252 348L260 348C259.03 341.242 259.917 338.094 252 338M268 338L265 348L275 348C274.176 343.379 272.709 339.473 268 338M281 338L281 348L285 346L301 348L297 338L289 347C288.581 340.903 287.677 338.217 281 338M302 338L302 348L305 348L304 338L302 338M307 338L307 348L310 345L316 348C315.997 344.013 316.598 340.332 313 338L313 342L310 338L307 338M318 338L318 348C328.905 347.961 328.335 338.251 318 338M330.242 339.043C324.879 342.24 330.406 350.666 335.566 347.638C340.832 344.549 335.741 335.765 330.242 339.043M339 338C339.511 341.457 341.937 351.13 346 345L347 345C350.834 350.786 353.046 342.349 354 339C351.109 338.088 350.68 338.46 349 341L348 338L344 342L343 342L342 338L339 338z"/>
<path style="fill:#e8dc2a; stroke:none;" d="M402 340C400.844 345.678 397.406 347.7 392 349L392 350L394 350L394 351C365.958 355.828 339.258 379.826 314 392.244C296.53 400.833 279.678 404.99 265 389L264 389C271.981 413.119 295.27 416.282 317 409.798C357.43 397.733 390.055 365.45 432 358.084C441.939 356.339 452.561 356.422 460.91 362.928C466.258 367.095 469.411 375.051 476 377C469.951 354.374 445.545 332.497 421 346C416.868 339.633 411.76 346.837 406.532 345.339C404.38 344.722 403.186 341.693 402 340M62 342C61.024 349.062 58.0621 352.024 51 353L51 354C58.1174 354.646 61.0409 358.06 62 365L63 365C63.3843 357.981 66.9808 354.384 74 354L74 353C66.1339 351.913 64.9655 348.533 62 342z"/>
<path style="fill:#010101; stroke:none;" d="M161 345L165 342L161 345M183 342L184 343L183 342z"/>
<path style="fill:#d74781; stroke:none;" d="M230 342L235 346L230 342z"/>
<path style="fill:#010101; stroke:none;" d="M284 342L285 343L284 342M331 345L335 342L331 345M367 342L368 343L367 342z"/>
<path style="fill:#29d6d8; stroke:none;" d="M264 390C253.615 417.406 294.574 427.202 313 425.91C356.146 422.887 389.775 391.079 428 374.72C438.551 370.204 463.647 362.205 469 379L473 380C473.196 374.892 469.493 370.763 466.127 367.09C453.414 353.222 433.169 355.868 417 361.699C408.252 364.854 398.252 368.502 390 372.784C366.037 385.219 343.939 400.841 318 409.164C306.059 412.995 291.444 415.71 280.004 408.906C272.177 404.251 268.733 397.296 264 390z"/>
<path style="fill:#5127ed; stroke:none;" d="M263 391L262 391C254.379 409.06 269.835 429.046 287 434L285 435L285 436C293.472 435.097 301.474 438.895 310 438.996C330.973 439.246 349.964 434.545 369 425.841C386.111 418.017 403.606 408.09 418.83 397.003C427.705 390.54 441.055 378.032 452 376.225C459.341 375.014 465.118 379.773 472 381L469 379C465.204 358.723 431.063 372.573 421 377.319C384.248 394.656 349.765 425.931 307 426C286.586 426.033 261.697 415.324 263 391z"/>
<path style="fill:#e8dc2a; stroke:none;" d="M247 373C246.413 378.227 244.227 380.413 239 381L239 382C244.01 383.865 246.574 385.37 247 391L248 391C249.677 385.671 251.858 383.914 257 382L257 381C250.909 380.539 250.377 377.198 247 373z"/>
<path style="fill:#29d6d8; stroke:none;" d="M283 436L283 437L290 435L283 436z"/>
<path style="fill:#5127ed; stroke:none;" d="M281.667 436.333L282.333 436.667L281.667 436.333z"/>
<path style="fill:#e8dc2a; stroke:none;" d="M290 438L293 436L290 438z"/>
<path style="fill:#d74781; stroke:none;" d="M292 437L292 438L296 437L292 437z"/>
<path style="fill:#5127ed; stroke:none;" d="M276 437L277 438L276 437z"/>
<path style="fill:#29d6d8; stroke:none;" d="M277 437L277 438L280 438L277 437z"/>
<path style="fill:#e8dc2a; stroke:none;" d="M280 437L280 438L284 438L280 437z"/>
<path style="fill:#d74781; stroke:none;" d="M284 437L284 438L290 438L284 437z"/>
</svg>
